HIERARCHY
ROOT Hips
{
	OFFSET 0.000000 71.427986 0.000000
	CHANNELS 6 Xposition Yposition Zposition Xrotation Yrotation Zrotation
	JOINT Pelvis
	{
		OFFSET 0.000000 0.000000 0.000000
		CHANNELS 3 Xrotation Yrotation Zrotation
		JOINT LeftUpLeg
		{
			OFFSET 6.797100 -2.508499 -1.318700
			CHANNELS 3 Xrotation Yrotation Zrotation
			JOINT LeftLeg
			{
				OFFSET 0.069008 -29.241863 0.690200
				CHANNELS 3 Xrotation Yrotation Zrotation
				JOINT LeftFoot
				{
					OFFSET -0.069008 -29.568123 -0.266800
					CHANNELS 3 Xrotation Yrotation Zrotation
					JOINT LeftToeBase
					{
						OFFSET 3.145500 -8.631000 16.059900
						CHANNELS 3 Xrotation Yrotation Zrotation
						End Site
						{
							OFFSET 0.000000 18.501587 0.000000
						}
					}
				}
			}
			JOINT Left_ShortSleeve
			{
				OFFSET 0.265923 -10.480953 1.153800
				CHANNELS 3 Xrotation Yrotation Zrotation
				End Site
				{
					OFFSET 1.725763 19.823879 0.000000
				}
			}
		}
		JOINT RightUpLeg
		{
			OFFSET -6.797100 -2.508499 -1.318700
			CHANNELS 3 Xrotation Yrotation Zrotation
			JOINT RightLeg
			{
				OFFSET -0.082453 -29.241932 0.688000
				CHANNELS 3 Xrotation Yrotation Zrotation
				JOINT RightFoot
				{
					OFFSET 0.082453 -29.568058 -0.264600
					CHANNELS 3 Xrotation Yrotation Zrotation
					JOINT RightToeBase
					{
						OFFSET -3.115300 -8.682800 16.113400
						CHANNELS 3 Xrotation Yrotation Zrotation
						End Site
						{
							OFFSET 0.000000 18.567114 0.000000
						}
					}
				}
			}
			JOINT Right_ShortSleeve
			{
				OFFSET -0.265923 -10.480953 1.153800
				CHANNELS 3 Xrotation Yrotation Zrotation
				End Site
				{
					OFFSET -1.725766 19.823910 0.000000
				}
			}
		}
	}
	JOINT Spine
	{
		OFFSET 0.000000 13.368103 0.470500
		CHANNELS 3 Xrotation Yrotation Zrotation
		JOINT Spine1
		{
			OFFSET 0.147000 13.837402 0.538800
			CHANNELS 3 Xrotation Yrotation Zrotation
			JOINT Spine2
			{
				OFFSET 0.168000 16.242897 -1.435500
				CHANNELS 3 Xrotation Yrotation Zrotation
				JOINT Neck
				{
					OFFSET 0.217200 18.631500 -1.679100
					CHANNELS 3 Xrotation Yrotation Zrotation
					JOINT Head
					{
						OFFSET 0.000000 6.599396 1.385900
						CHANNELS 3 Xrotation Yrotation Zrotation
						JOINT Hat
						{
							OFFSET -0.532200 27.220596 -10.096100
							CHANNELS 3 Xrotation Yrotation Zrotation
							End Site
							{
								OFFSET 0.000000 22.029861 0.000000
							}
						}
						JOINT HairD
						{
							OFFSET -10.777400 17.437393 -1.325900
							CHANNELS 3 Xrotation Yrotation Zrotation
							JOINT HairD1
							{
								OFFSET -3.290299 -11.051193 1.062200
								CHANNELS 3 Xrotation Yrotation Zrotation
								End Site
								{
									OFFSET 0.000000 11.579437 0.000000
								}
							}
						}
						JOINT HairB
						{
							OFFSET -10.777400 17.437393 1.467900
							CHANNELS 3 Xrotation Yrotation Zrotation
							JOINT HairB1
							{
								OFFSET -1.561200 -12.956299 3.590200
								CHANNELS 3 Xrotation Yrotation Zrotation
								End Site
								{
									OFFSET 0.000000 13.534866 0.000000
								}
							}
						}
						JOINT HairA
						{
							OFFSET 9.713100 17.437393 1.467900
							CHANNELS 3 Xrotation Yrotation Zrotation
							JOINT HairA1
							{
								OFFSET 1.561200 -12.956299 3.590200
								CHANNELS 3 Xrotation Yrotation Zrotation
								End Site
								{
									OFFSET 0.000000 13.534866 0.000000
								}
							}
						}
						JOINT HairC
						{
							OFFSET 9.713100 17.437393 -1.325900
							CHANNELS 3 Xrotation Yrotation Zrotation
							JOINT HairC1
							{
								OFFSET 3.290300 -11.051193 1.062200
								CHANNELS 3 Xrotation Yrotation Zrotation
								End Site
								{
									OFFSET 0.000000 11.579437 0.000000
								}
							}
						}
					}
				}
				JOINT LeftShoulder
				{
					OFFSET 5.101800 15.108002 -2.763700
					CHANNELS 3 Xrotation Yrotation Zrotation
					JOINT LeftArm
					{
						OFFSET 9.825497 2.506317 -1.597400
						CHANNELS 3 Xrotation Yrotation Zrotation
						JOINT LeftForeArm
						{
							OFFSET 21.966244 0.000000 0.000000
							CHANNELS 3 Xrotation Yrotation Zrotation
							JOINT LeftHand
							{
								OFFSET 33.879036 0.000000 0.000000
								CHANNELS 3 Xrotation Yrotation Zrotation
								JOINT LeftHandThumb1
								{
									OFFSET 6.715286 -2.359680 3.363841
									CHANNELS 3 Xrotation Yrotation Zrotation
									JOINT LeftHandThumb2
									{
										OFFSET 2.507072 -1.447464 1.447461
										CHANNELS 3 Xrotation Yrotation Zrotation
										JOINT LeftHandThumb3
										{
											OFFSET 2.898338 -1.673355 1.673357
											CHANNELS 3 Xrotation Yrotation Zrotation
											End Site
											{
												OFFSET -0.295959 3.727692 -0.131651
											}
										}
									}
								}
								JOINT LeftHandIndex1
								{
									OFFSET 14.190811 -0.254547 3.840278
									CHANNELS 3 Xrotation Yrotation Zrotation
									JOINT LeftHandIndex2
									{
										OFFSET 3.551727 0.000000 -0.000000
										CHANNELS 3 Xrotation Yrotation Zrotation
										JOINT LeftHandIndex3
										{
											OFFSET 2.894196 0.000000 0.000000
											CHANNELS 3 Xrotation Yrotation Zrotation
											End Site
											{
												OFFSET -1.000603 2.690872 0.366626
											}
										}
									}
								}
								JOINT LeftHandMiddle1
								{
									OFFSET 13.776489 0.000000 0.000000
									CHANNELS 3 Xrotation Yrotation Zrotation
									JOINT LeftHandMiddle2
									{
										OFFSET 3.438232 0.000000 0.000000
										CHANNELS 3 Xrotation Yrotation Zrotation
										JOINT LeftHandMiddle3
										{
											OFFSET 3.691551 0.000000 0.000000
											CHANNELS 3 Xrotation Yrotation Zrotation
											End Site
											{
												OFFSET -1.082298 3.499527 0.457670
											}
										}
									}
								}
								JOINT LeftHandRing1
								{
									OFFSET 13.966164 -0.268127 -3.067488
									CHANNELS 3 Xrotation Yrotation Zrotation
									JOINT LeftHandRing2
									{
										OFFSET 3.162567 0.000000 0.000000
										CHANNELS 3 Xrotation Yrotation Zrotation
										JOINT LeftHandRing3
										{
											OFFSET 3.324348 0.000000 0.000000
											CHANNELS 3 Xrotation Yrotation Zrotation
											End Site
											{
												OFFSET -0.861900 3.184998 0.405154
											}
										}
									}
								}
								JOINT LeftHandPinky1
								{
									OFFSET 13.131393 -0.168503 -5.746925
									CHANNELS 3 Xrotation Yrotation Zrotation
									JOINT LeftHandPinky2
									{
										OFFSET 2.849182 0.000000 0.000000
										CHANNELS 3 Xrotation Yrotation Zrotation
										JOINT LeftHandPinky3
										{
											OFFSET 2.805038 0.000000 0.000000
											CHANNELS 3 Xrotation Yrotation Zrotation
											End Site
											{
												OFFSET -0.882500 2.642609 0.325652
											}
										}
									}
								}
							}
							JOINT Left_Sleeve
							{
								OFFSET 6.592125 -0.646545 0.805568
								CHANNELS 3 Xrotation Yrotation Zrotation
								End Site
								{
									OFFSET -0.000179 20.275787 -0.000000
								}
							}
						}
					}
				}
				JOINT RightShoulder
				{
					OFFSET -5.731700 15.108002 -2.763700
					CHANNELS 3 Xrotation Yrotation Zrotation
					JOINT RightArm
					{
						OFFSET -9.825497 2.506317 -1.597400
						CHANNELS 3 Xrotation Yrotation Zrotation
						JOINT RightForeArm
						{
							OFFSET -21.966242 0.000000 0.000000
							CHANNELS 3 Xrotation Yrotation Zrotation
							JOINT RightHand
							{
								OFFSET -33.879032 0.000000 0.000000
								CHANNELS 3 Xrotation Yrotation Zrotation
								JOINT RightHandThumb1
								{
									OFFSET -6.715286 -2.359680 3.363841
									CHANNELS 3 Xrotation Yrotation Zrotation
									JOINT RightHandThumb2
									{
										OFFSET -2.507072 -1.447464 1.447461
										CHANNELS 3 Xrotation Yrotation Zrotation
										JOINT RightHandThumb3
										{
											OFFSET -2.898338 -1.673355 1.673357
											CHANNELS 3 Xrotation Yrotation Zrotation
											End Site
											{
												OFFSET 0.295959 3.727692 -0.131651
											}
										}
									}
								}
								JOINT RightHandIndex1
								{
									OFFSET -14.190811 -0.254547 3.840278
									CHANNELS 3 Xrotation Yrotation Zrotation
									JOINT RightHandIndex2
									{
										OFFSET -3.551727 0.000000 -0.000000
										CHANNELS 3 Xrotation Yrotation Zrotation
										JOINT RightHandIndex3
										{
											OFFSET -2.894196 0.000000 0.000000
											CHANNELS 3 Xrotation Yrotation Zrotation
											End Site
											{
												OFFSET 1.000603 2.690872 0.366626
											}
										}
									}
								}
								JOINT RightHandMiddle1
								{
									OFFSET -13.776489 0.000000 0.000000
									CHANNELS 3 Xrotation Yrotation Zrotation
									JOINT RightHandMiddle2
									{
										OFFSET -3.438232 0.000000 0.000000
										CHANNELS 3 Xrotation Yrotation Zrotation
										JOINT RightHandMiddle3
										{
											OFFSET -3.691551 0.000000 0.000000
											CHANNELS 3 Xrotation Yrotation Zrotation
											End Site
											{
												OFFSET 1.082298 3.499527 0.457670
											}
										}
									}
								}
								JOINT RightHandRing1
								{
									OFFSET -13.966164 -0.268127 -3.067488
									CHANNELS 3 Xrotation Yrotation Zrotation
									JOINT RightHandRing2
									{
										OFFSET -3.162567 0.000000 0.000000
										CHANNELS 3 Xrotation Yrotation Zrotation
										JOINT RightHandRing3
										{
											OFFSET -3.324348 0.000000 0.000000
											CHANNELS 3 Xrotation Yrotation Zrotation
											End Site
											{
												OFFSET 0.861900 3.184998 0.405154
											}
										}
									}
								}
								JOINT RightHandPinky1
								{
									OFFSET -13.131393 -0.168503 -5.746925
									CHANNELS 3 Xrotation Yrotation Zrotation
									JOINT RightHandPinky2
									{
										OFFSET -2.849182 0.000000 0.000000
										CHANNELS 3 Xrotation Yrotation Zrotation
										JOINT RightHandPinky3
										{
											OFFSET -2.805038 0.000000 0.000000
											CHANNELS 3 Xrotation Yrotation Zrotation
											End Site
											{
												OFFSET 0.882500 2.642609 0.325652
											}
										}
									}
								}
							}
							JOINT Right_Sleeve
							{
								OFFSET -6.592125 -0.646545 0.805568
								CHANNELS 3 Xrotation Yrotation Zrotation
								End Site
								{
									OFFSET 0.000179 20.275787 -0.000000
								}
							}
						}
					}
				}
				JOINT Bind_Right_JacketString
				{
					OFFSET -3.534800 11.969597 7.200700
					CHANNELS 3 Xrotation Yrotation Zrotation
					JOINT Bind_Right_JacketString1
					{
						OFFSET -0.319900 -6.102600 2.794100
						CHANNELS 3 Xrotation Yrotation Zrotation
						End Site
						{
							OFFSET 0.000000 6.719452 0.000000
						}
					}
				}
				JOINT Bind_Left_JacketString
				{
					OFFSET 2.904800 11.969597 7.200700
					CHANNELS 3 Xrotation Yrotation Zrotation
					JOINT Bind_Left_JacketString1
					{
						OFFSET 0.364800 -5.904503 3.186800
						CHANNELS 3 Xrotation Yrotation Zrotation
						End Site
						{
							OFFSET 0.000000 6.719513 0.000000
						}
					}
				}
				JOINT HairE
				{
					OFFSET 5.915200 17.612701 -11.592200
					CHANNELS 3 Xrotation Yrotation Zrotation
					JOINT HairE1
					{
						OFFSET 0.289200 -7.171898 -1.284500
						CHANNELS 3 Xrotation Yrotation Zrotation
						End Site
						{
							OFFSET 0.000000 7.291756 0.000000
						}
					}
				}
				JOINT HairF
				{
					OFFSET -0.864800 17.612701 -11.592200
					CHANNELS 3 Xrotation Yrotation Zrotation
					JOINT HairF1
					{
						OFFSET 0.000000 -14.087097 -2.127501
						CHANNELS 3 Xrotation Yrotation Zrotation
						End Site
						{
							OFFSET 0.000000 14.246841 0.000000
						}
					}
				}
				JOINT HairG
				{
					OFFSET -8.087700 17.612701 -11.592200
					CHANNELS 3 Xrotation Yrotation Zrotation
					JOINT HairG1
					{
						OFFSET -0.293600 -6.081398 -0.910100
						CHANNELS 3 Xrotation Yrotation Zrotation
						End Site
						{
							OFFSET 0.000000 6.156120 0.000000
						}
					}
				}
			}
		}
	}
	JOINT Pouch
	{
		OFFSET 0.000000 4.394501 10.847300
		CHANNELS 3 Xrotation Yrotation Zrotation
		End Site
		{
			OFFSET 0.000000 21.880577 0.000000
		}
	}
	JOINT Bag
	{
		OFFSET -13.229000 4.813004 -0.593300
		CHANNELS 3 Xrotation Yrotation Zrotation
		End Site
		{
			OFFSET 0.000000 21.880577 0.000000
		}
	}
	JOINT OccupyGuyFacialAnim_Joint
	{
		OFFSET 1.000000 -70.206398 -1.655000
		CHANNELS 3 Xrotation Yrotation Zrotation
		End Site
		{
			OFFSET 0.000000 21.880577 0.000000
		}
	}
}
MOTION
Frames: 4
Frame Time: 0.016667
-18.009735 62.148155 -8.594643 35.981799 4.054058 -3.967821 0.000000 0.000000 -0.000000 -55.252532 -18.914466 23.251035 30.093714 9.687899 -2.895977 0.271627 8.391380 -25.824774 0.000000 0.000000 -0.000000 -0.000001 0.000000 -0.000003 -64.580217 -2.143373 -15.467892 51.389746 -6.627936 -1.142020 -19.263070 -3.496284 16.815933 -0.000000 -0.000000 0.000000 0.000001 0.000000 -0.000000 11.166081 2.085686 0.821455 9.606830 1.909025 0.899770 9.603333 2.011866 0.811204 -0.524615 -2.137135 -0.972091 -33.188251 -13.301679 4.013186 0.000001 0.000000 0.000000 0.000001 0.000000 0.000000 0.000001 0.000000 0.000000 0.000001 0.000000 0.000000 0.000001 -0.000000 0.000000 0.000001 0.000000 0.000000 0.000001 -0.000000 0.000000 0.000001 0.000000 0.000000 0.000001 0.000000 0.000000 1.414467 -22.723536 -8.784364 11.762073 -10.125578 -53.585378 0.000048 -69.152223 0.000035 9.634472 -7.078043 51.536475 -3.236118 1.418151 8.402925 5.654942 12.269265 1.647782 0.000002 0.000002 0.000005 -2.869243 -11.236235 -14.304750 0.189453 1.607167 -13.444100 0.000006 0.000000 0.000002 -1.015589 -2.322571 -17.137993 0.372021 2.236737 -18.883781 0.000004 0.000000 -0.000001 0.425060 2.386057 -20.199024 0.525199 2.642135 -22.481662 -0.000004 -0.000001 0.000001 2.908287 9.324888 -19.277229 0.542573 -1.387831 -23.214307 -0.000002 -0.000002 0.000001 0.000002 -0.000001 -0.000002 3.076677 26.719388 7.630346 -0.858356 44.777911 17.984950 -0.000003 15.067899 0.000009 -12.088584 -18.720859 2.445793 11.401646 -6.367881 -1.590885 -8.836325 -28.068813 -6.744424 0.000000 0.000005 0.000000 1.584798 -10.189955 8.836249 0.110148 -1.235138 10.190475 -0.000002 -0.000001 -0.000002 0.067132 -0.965892 7.951944 0.067136 -0.965880 7.951944 0.000000 0.000001 -0.000004 -0.761390 3.643565 10.438905 0.104630 -1.204190 9.932210 0.000001 0.000000 -0.000002 -2.759450 8.024665 17.655254 0.308088 -2.050670 17.086509 -0.000002 0.000000 -0.000001 -0.000000 -0.000001 -0.000000 -0.000000 -0.000000 0.000001 -0.000000 -0.000000 0.000001 -0.000000 -0.000000 0.000001 -0.000000 -0.000000 0.000001 -0.000000 -0.000000 0.000001 -0.000000 -0.000000 0.000001 -0.000000 -0.000000 0.000001 -0.000000 -0.000000 0.000001 -0.000000 -0.000000 0.000001 -0.000000 -0.000000 0.000001 0.000000 0.000000 -0.000000 0.000000 0.000000 -0.000000 0.000000 0.000000 -0.000000 
-17.717318 61.842121 -8.713783 37.446000 3.934396 -3.867035 -0.000001 0.000000 -0.000000 -58.502674 -17.925628 22.875840 32.190480 9.763493 -3.030213 -0.589852 7.130148 -25.374096 0.000000 0.000000 -0.000000 0.000001 0.000001 -0.000003 -66.624869 -1.855256 -15.798156 52.077689 -6.411355 -1.451139 -19.345222 -3.585176 17.218258 -0.000000 0.000000 -0.000000 -0.000000 0.000000 -0.000001 11.355744 2.223995 0.830092 9.817432 2.025246 0.983093 9.811148 2.152149 0.886992 -0.715576 -2.246420 -1.135934 -34.116617 -13.747782 3.784627 0.000003 0.000000 0.000000 0.000003 0.000000 0.000000 0.000003 0.000000 0.000000 0.000003 0.000000 -0.000000 0.000003 -0.000000 -0.000000 0.000003 0.000000 -0.000000 0.000003 -0.000000 -0.000000 0.000003 0.000000 0.000000 0.000003 0.000000 0.000000 1.416221 -22.973082 -8.880204 11.192763 -9.120336 -53.018773 0.000020 -70.505843 0.000023 10.038180 -7.077210 52.367088 -3.374865 1.231296 8.584187 5.793801 12.624824 1.716470 0.000003 0.000002 0.000000 -2.849391 -11.834702 -13.679895 0.167896 1.514193 -12.652655 0.000005 -0.000000 -0.000000 -1.107510 -2.724899 -16.827242 0.358598 2.197129 -18.536783 0.000005 0.000003 -0.000002 0.422355 2.378705 -20.134018 0.523087 2.637006 -22.435565 0.000001 0.000001 -0.000002 2.892616 9.303089 -19.220774 0.541222 -1.391024 -23.185729 -0.000001 0.000001 0.000001 0.000000 -0.000001 -0.000001 3.187588 27.214295 7.729331 -2.835468 44.048412 16.782885 -0.000010 15.523333 0.000011 -11.553911 -18.245677 1.205167 11.420372 -6.347044 -1.613740 -8.885698 -28.126231 -6.728610 0.000001 0.000004 0.000002 1.580418 -10.229630 8.766663 0.108801 -1.227724 10.128396 -0.000001 0.000000 -0.000001 0.064978 -0.950261 7.822449 0.064948 -0.950257 7.822428 0.000002 -0.000001 -0.000001 -0.755252 3.690484 10.276190 0.101180 -1.184325 9.766751 0.000001 -0.000001 -0.000000 -2.755528 8.099323 17.520900 0.303165 -2.034584 16.948049 0.000001 0.000000 0.000001 -0.000001 -0.000001 -0.000000 0.000003 0.000000 -0.000000 0.000001 0.000000 -0.000000 0.000003 0.000000 -0.000000 0.000003 0.000000 -0.000000 0.000003 0.000000 -0.000000 0.000001 0.000000 -0.000000 0.000003 0.000000 -0.000000 0.000003 0.000000 -0.000000 0.000003 0.000000 -0.000000 0.000001 0.000000 -0.000000 -0.000001 0.000000 -0.000000 -0.000001 0.000000 -0.000000 -0.000001 0.000000 -0.000000 
-17.377893 61.555332 -8.791965 39.055305 4.057377 -3.642361 0.000001 -0.000000 -0.000000 -61.889881 -16.909807 22.281069 34.161352 9.830320 -3.211542 -1.312464 5.662102 -24.859853 0.000000 0.000002 -0.000000 0.000002 0.000000 0.000001 -68.733457 -1.546285 -16.521348 52.737332 -6.107468 -1.661976 -19.459368 -3.677815 17.607171 0.000000 -0.000000 -0.000000 0.000001 -0.000001 0.000001 11.445681 2.330303 0.808445 9.969269 2.124029 1.135354 9.956440 2.298935 1.031305 -0.838439 -2.418142 -1.228872 -35.049047 -14.115565 3.169132 0.000002 0.000000 0.000000 0.000002 0.000000 0.000000 0.000002 0.000000 0.000000 0.000002 0.000000 0.000000 0.000001 0.000000 0.000000 0.000002 0.000000 0.000000 0.000001 0.000000 0.000000 0.000002 0.000000 0.000000 0.000002 0.000000 0.000000 1.450529 -23.720936 -8.828586 11.826669 -9.065767 -52.805610 -0.000038 -71.719910 -0.000031 10.805706 -6.917958 53.874903 -3.512168 1.046270 8.763069 5.931029 12.976940 1.783625 0.000003 -0.000000 -0.000004 -2.817148 -12.428212 -13.059505 0.147816 1.421850 -11.869165 -0.000001 0.000001 -0.000002 -1.194129 -3.124431 -16.519649 0.345535 2.157831 -18.193257 0.000007 0.000001 -0.000001 0.419690 2.371426 -20.069650 0.520986 2.631947 -22.389954 0.000002 0.000001 0.000000 2.877107 9.281338 -19.164891 0.539863 -1.394161 -23.157417 -0.000002 -0.000001 0.000001 0.000004 0.000000 0.000000 3.294679 27.536630 7.886907 -5.270279 43.242877 15.996342 -0.000021 15.853544 0.000007 -11.364519 -17.432022 -0.170953 11.427805 -6.338795 -1.622795 -8.905257 -28.148968 -6.722354 0.000000 -0.000001 -0.000000 1.578678 -10.245338 8.739120 0.108286 -1.224763 10.103834 -0.000002 -0.000001 0.000002 0.064135 -0.944073 7.771183 0.064120 -0.944064 7.771179 0.000001 0.000000 -0.000002 -0.752782 3.709064 10.211777 0.099849 -1.176460 9.701248 0.000000 0.000000 -0.000002 -2.753893 8.128875 17.467714 0.301228 -2.028204 16.893257 -0.000002 -0.000000 0.000000 -0.000002 0.000001 0.000000 -0.000001 0.000000 -0.000000 -0.000001 0.000000 -0.000000 -0.000001 0.000000 -0.000000 -0.000001 0.000000 -0.000000 -0.000001 0.000000 -0.000000 -0.000001 0.000000 -0.000000 -0.000001 0.000000 -0.000000 -0.000001 0.000000 -0.000000 -0.000001 0.000000 -0.000000 -0.000001 0.000000 -0.000000 0.000001 -0.000000 -0.000000 0.000001 -0.000000 -0.000000 0.000001 -0.000000 -0.000000 
-16.997101 61.253101 -8.846485 40.685682 4.310449 -3.391264 -0.000000 0.000000 -0.000000 -65.349788 -15.652137 21.561478 36.089900 9.914005 -3.270698 -2.057146 4.089084 -24.289560 0.000000 -0.000000 0.000000 -0.000000 -0.000000 -0.000002 -70.859326 -1.258376 -17.456060 53.451875 -5.718682 -1.843134 -19.624887 -3.782635 18.003651 0.000000 -0.000000 0.000000 0.000001 0.000000 0.000000 11.491647 2.382496 0.809597 10.064951 2.170635 1.237804 10.048265 2.372609 1.130298 -0.902481 -2.527068 -1.383377 -35.906598 -14.329189 2.536112 0.000001 0.000000 -0.000000 0.000001 0.000000 -0.000000 0.000001 0.000000 0.000000 0.000001 0.000000 0.000000 0.000001 0.000000 0.000000 0.000001 0.000000 0.000000 0.000001 0.000000 0.000000 0.000001 0.000000 -0.000000 0.000001 0.000000 -0.000000 1.473622 -24.423867 -8.886948 12.773691 -9.396230 -52.694168 0.000014 -72.757470 -0.000001 11.913177 -6.670312 56.007981 -3.647172 0.864199 8.938407 6.065774 13.323441 1.848970 -0.000000 0.000001 0.000004 -2.773160 -13.012705 -12.447469 0.129299 1.330789 -11.098666 0.000005 0.000004 0.000001 -1.275079 -3.518498 -16.217282 0.332927 2.119123 -17.855417 0.000001 0.000001 0.000001 0.417075 2.364255 -20.006340 0.518923 2.626941 -22.345092 -0.000001 0.000000 0.000000 2.861843 9.259788 -19.109968 0.538536 -1.397243 -23.129546 0.000001 -0.000001 0.000003 0.000002 0.000000 -0.000001 3.339805 27.785954 7.894899 -7.494344 42.669008 15.410840 -0.000015 16.135757 0.000005 -11.314867 -17.019353 -1.634186 11.432228 -6.333876 -1.628204 -8.916902 -28.162542 -6.718617 0.000001 0.000001 0.000003 1.577604 -10.254724 8.722675 0.107969 -1.222999 10.089148 -0.000003 0.000001 -0.000001 0.063616 -0.940395 7.740559 0.063606 -0.940371 7.740570 0.000001 0.000000 -0.000001 -0.751279 3.720145 10.173315 0.099052 -1.171777 9.662120 -0.000001 0.000000 -0.000001 -2.752880 8.146506 17.435938 0.300065 -2.024390 16.860525 0.000001 0.000001 -0.000001 0.000001 0.000000 0.000000 -0.000001 0.000000 0.000000 -0.000001 0.000000 -0.000000 -0.000001 0.000000 0.000000 -0.000001 0.000000 0.000000 -0.000001 0.000000 0.000000 -0.000001 0.000000 -0.000000 -0.000001 0.000000 0.000000 -0.000001 0.000000 0.000000 -0.000001 0.000000 0.000000 -0.000001 0.000000 -0.000000 -0.000000 0.000000 -0.000000 -0.000000 0.000000 -0.000000 -0.000000 0.000000 -0.000000 
